<?xml version="1.0" encoding="UTF-8" standalone="no"?>
<!DOCTYPE svg PUBLIC "-//W3C//DTD SVG 1.1//EN" "http://www.w3.org/Graphics/SVG/1.1/DTD/svg11.dtd">
<!-- Created with Vectornator (http://vectornator.io/) -->
<svg height="100%" stroke-miterlimit="10" style="fill-rule:nonzero;clip-rule:evenodd;stroke-linecap:round;stroke-linejoin:round;" version="1.1" viewBox="0 0 16061.4 20624.8" width="100%" xml:space="preserve" xmlns="http://www.w3.org/2000/svg" xmlns:vectornator="http://vectornator.io" xmlns:xlink="http://www.w3.org/1999/xlink">
<defs/>
<g id="__x0023_Layer_x0020_2" vectornator:layerName="__x0023_Layer_x0020_2">
<g opacity="1">
<path d="M854.069 1544.64L854.069 14727.9C854.069 15963.1 1008.32 17469.1 2211.72 18156.1C3532.1 18910 7028.5 19475.8 8060.47 19934.3C9092.3 19476 12588.5 18910.3 13909.3 18156.1C15112.6 17469.1 15266.9 15963.1 15266.9 14727.9L15266.9 1544.64C15266.9 1544.64 8216.17-415.928 854.07 1544.64L854.069 1544.64Z" fill="#373435" fill-rule="nonzero" opacity="1" stroke="none"/>
<path d="M1266.39 4266.28L1266.39 14880.3C1266.39 15959.1 1401.14 17174.4 2452.19 17774.5C3605.38 18432.9 7159.14 19000.5 8060.47 19400.9C8961.66 19000.6 12515.3 18433.1 13668.9 17774.5C14719.8 17174.4 14854.5 15959.1 14854.5 14880.3L14854.5 4266.28C14854.5 4266.28 7696.37 2553.94 1266.39 4266.28L1266.39 4266.28Z" fill="#fefefe" fill-rule="nonzero" opacity="1" stroke="none"/>
<path d="M1266.39 9017.03L1266.39 9925.11L1266.39 11682.6L1266.39 12590.7C9055.78 14501.9 14854.5 12590.7 14854.5 12590.7L14854.5 11682.6L14854.5 9925.11L14854.5 9017.03C7065.13 7105.75 1266.39 9017.03 1266.39 9017.03Z" fill="#373435" fill-rule="nonzero" opacity="1" stroke="none"/>
<path d="M1266.39 9417.07L1266.39 9925.1L1266.39 11682.6L1266.39 12190.6C9055.78 14101.9 14854.5 12190.6 14854.5 12190.6L14854.5 11682.6L14854.5 9925.1L14854.5 9417.07C7065.13 7505.8 1266.39 9417.07 1266.39 9417.07Z" fill="#cd4343" fill-rule="nonzero" opacity="1" stroke="none"/>
<path d="M8954.83 5255.38C8901.02 4881.21 8599.54 4683.78 8179.57 4683.78C7533.5 4683.78 7285.86 5234.57 7285.86 5785.38C7285.86 6336.16 7533.5 6886.98 8179.57 6886.98C8647.99 6886.98 8917.18 6627.18 8954.83 6201.05L9956.29 6201.05C9902.43 7157.18 9175.62 7718.37 8201.17 7718.37C7038.23 7718.37 6284.43 6861.01 6284.43 5785.38C6284.43 4709.75 7038.23 3852.36 8201.17 3852.36C9030.24 3852.36 9929.39 4361.62 9956.29 5255.38C9956.29 5255.38 8954.83 5255.38 8954.83 5255.38Z" fill="#373435" fill-rule="nonzero" opacity="1" stroke="none"/>
<path d="M5977.54 14281.6L7452.79 14281.6L8115.01 16755L8125.76 16755L8787.96 14281.6L10263.2 14281.6L10263.2 17991.7L9321 17991.7L9321 15175.3L9310.19 15175.3L8502.67 17991.7L7738.1 17991.7L6930.5 15175.3L6919.75 15175.3L6919.75 17991.7L5977.54 17991.7L5977.54 14281.6Z" fill="#373435" fill-rule="nonzero" opacity="1" stroke="none"/>
<g opacity="1">
<path d="M2701.21 2140.14C2660.93 2015.48 2546.39 1965.67 2402.97 1990.17C2182.29 2027.93 2129.9 2230.49 2162.11 2418.65C2194.31 2606.75 2311.06 2780.42 2531.74 2742.72C2691.72 2715.36 2768.49 2610.92 2756.44 2463.13L3098.51 2404.67C3135.96 2734.41 2920.53 2968.53 2587.67 3025.42C2190.49 3093.35 1882.95 2844.49 1820.04 2477.11C1757.19 2109.72 1964.54 1772.86 2361.75 1704.94C2644.94 1656.54 2981.79 1778 3043.23 2081.65C3043.23 2081.65 2701.21 2140.14 2701.21 2140.14Z" fill="#fefefe" fill-rule="nonzero" opacity="1" stroke="none"/>
<path d="M3124.99 1609.17L3469.02 1564.04L3598.38 2553.23L4214.28 2472.4L4251.65 2758.08L3291.72 2884.04L3124.99 1609.17Z" fill="#fefefe" fill-rule="nonzero" opacity="1" stroke="none"/>
<path d="M5443.48 2109.66C5478.55 2480.51 5319.53 2681.71 4918.41 2719.67C4517.26 2757.55 4323.37 2589.66 4288.3 2218.81L4217.31 1468.13L4562.76 1435.53L4635.62 2205.88C4651.21 2370.74 4722.31 2448.98 4891.31 2432.99C5060.27 2417.03 5115.47 2326.85 5099.88 2162.02L5027.08 1391.61L5372.52 1358.98C5372.52 1358.98 5443.48 2109.66 5443.48 2109.66Z" fill="#fefefe" fill-rule="nonzero" opacity="1" stroke="none"/>
<path d="M5576.53 1343.62L6198.33 1309.48C6427.17 1293.27 6681.67 1337.01 6696.44 1604.86C6702.79 1719.94 6637.18 1817.29 6535.72 1873.37C6679.4 1905.12 6773.43 2019 6781.49 2164.58C6798.35 2470.22 6570.79 2576.47 6285.93 2592.09L5647.32 2627.16C5647.32 2627.16 5576.53 1343.62 5576.53 1343.62ZM5950.69 1829.76L5950.69 1829.76L6218.77 1815.02C6278.36 1811.73 6358.59 1776.66 6353.51 1685.01C6348.33 1591.54 6277.76 1564.72 6205.16 1568.74L5937.05 1583.43C5937.05 1583.43 5950.69 1829.76 5950.69 1829.76ZM5978.87 2340.32L5978.87 2340.32L6256.25 2325.09C6366.1 2319.03 6440.35 2277.07 6434.48 2171.01C6428.22 2057.75 6344.24 2024.5 6239.97 2030.23L5962.54 2045.45C5962.54 2045.45 5978.87 2340.32 5978.87 2340.32Z" fill="#fefefe" fill-rule="nonzero" opacity="1" stroke="none"/>
<path d="M7444.82 1257.18L7955.8 1260.1L8180.11 2118.62L8183.82 2118.62L8418.28 1262.79L8929.25 1265.71L8921.57 2551.44L8595.29 2549.57L8601.07 1573.56L8597.36 1573.53L8311.82 2547.95L8047.03 2546.45L7773.09 1568.83L7769.37 1568.77L7763.56 2544.84L7437.19 2542.94L7444.82 1257.18Z" fill="#fefefe" fill-rule="nonzero" opacity="1" stroke="none"/>
<path d="M9761.72 1281.53C10180.6 1304.21 10401 1613.62 10380.7 1985.74C10360.5 2357.84 10108 2641.73 9689.06 2619.05C9270.11 2596.35 9049.83 2286.93 9070.04 1914.81C9090.26 1542.72 9342.77 1258.88 9761.72 1281.53ZM9704.68 2331.42L9704.68 2331.42C9928.11 2343.49 10024.1 2157.57 10034.4 1967.03C10044.8 1776.46 9969.5 1581.25 9746.1 1569.17C9522.68 1557.12 9426.68 1743.01 9416.31 1933.58C9405.96 2124.12 9481.26 2319.31 9704.68 2331.42Z" fill="#fefefe" fill-rule="nonzero" opacity="1" stroke="none"/>
<path d="M10584.3 1359.29L11259.8 1425.94C11493.6 1449.05 11713.7 1573.87 11688.2 1831.86C11674.5 1969.81 11593 2093.81 11448.7 2132.03L11448.3 2135.6C11586.1 2181.81 11611.9 2338.1 11611 2461.03C11609.4 2515.15 11596.4 2703.79 11638.2 2754.96L11296.7 2721.28C11271.3 2675.33 11278.1 2549.37 11277.9 2513.19C11281.4 2383.29 11272.2 2248.52 11110.8 2232.59L10849.1 2206.76L10803.1 2672.58L10457.9 2638.5C10457.9 2638.5 10584.3 1359.29 10584.3 1359.29ZM10874.6 1948.77L10874.6 1948.77L11164.1 1977.32C11268 1987.59 11329 1939.33 11338.6 1842.6C11348 1747.6 11274.3 1696.91 11177.8 1687.39L10903.1 1660.28C10903.1 1660.28 10874.6 1948.77 10874.6 1948.77Z" fill="#fefefe" fill-rule="nonzero" opacity="1" stroke="none"/>
<path d="M12508.6 1555.25C12923.8 1616 13115.3 1944.18 13061.6 2312.82C13007.9 2681.48 12730.8 2941.02 12315.6 2880.27C11900.5 2819.49 11709 2491.31 11762.7 2122.67C11816.4 1754.01 12093.5 1494.47 12508.6 1555.25ZM12357.1 2595.32L12357.1 2595.32C12578.5 2627.7 12691 2451.36 12718.4 2262.58C12745.9 2073.83 12688.5 1872.63 12467.1 1840.19C12245.7 1807.79 12133.4 1984.13 12105.9 2172.91C12078.4 2361.69 12135.7 2562.89 12357.1 2595.32Z" fill="#fefefe" fill-rule="nonzero" opacity="1" stroke="none"/>
<path d="M13323.4 1707.37L13672.8 1776.12L13973.5 2642.36L13977.3 2643.09L14130.3 1866.19L14450.5 1929.24L14202.1 3189.88L13852.6 3121.13L13553.7 2246.05L13549.9 2245.34L13395.1 3031.07L13075 2968.04L13323.4 1707.37Z" fill="#fefefe" fill-rule="nonzero" opacity="1" stroke="none"/>
</g>
<g opacity="1">
<path d="M11063.8 3003.4L11201.9 3016.3C11325.8 3027.83 11389.6 3094.26 11378.1 3219.68C11366.2 3349.92 11300.1 3417.99 11166.1 3405.48L11027.9 3392.59C11027.9 3392.59 11063.8 3003.4 11063.8 3003.4ZM11085.5 3353.97L11085.5 3353.97L11174.6 3362.28C11211.2 3365.68 11310.7 3365.14 11323.9 3221.78C11332.4 3129.04 11302.1 3069.59 11203.5 3060.35L11113.3 3051.96C11113.3 3051.96 11085.5 3353.97 11085.5 3353.97Z" fill="#fefefe" fill-rule="nonzero" opacity="1" stroke="none"/>
<path d="M11445.9 3039.88L11723.9 3069.65L11719.3 3113.14L11494.9 3089.12L11481.8 3212.67L11691 3234.99L11686.3 3278.45L11477.2 3256.08L11462.9 3390.43L11688.9 3414.61L11684.4 3458.07L11404.7 3428.19L11445.9 3039.88Z" fill="#fefefe" fill-rule="nonzero" opacity="1" stroke="none"/>
<path d="M11993.2 3217.15C11993.7 3161.05 11958.4 3132.53 11903.2 3125.89C11858.2 3120.48 11811.3 3130.74 11805.2 3181.21C11799.4 3228.98 11862.8 3243.69 11925.7 3265.63C11988.1 3287.49 12049.7 3316.97 12040.4 3392.95C12030.5 3475.34 11942.7 3498.39 11869.6 3489.51C11779.6 3478.63 11708.7 3427.17 11720.1 3332.76L11770.8 3338.89C11762.9 3403.98 11815.7 3439.02 11876.5 3446.28C11924.9 3452.15 11980.1 3443.95 11986.9 3388.1C11993.3 3334.92 11930.2 3317.94 11867.8 3296.62C11805.2 3275.33 11742.7 3249.61 11751.4 3178.57C11760.9 3099.9 11837.5 3073.9 11910.7 3082.75C11992.8 3092.64 12050.7 3137.69 12043.8 3223.25C12043.8 3223.25 11993.2 3217.15 11993.2 3217.15Z" fill="#fefefe" fill-rule="nonzero" opacity="1" stroke="none"/>
<path d="M12124.6 3117.28L12262.2 3135.79C12385.6 3152.4 12446.6 3221.41 12429.8 3346.26C12412.3 3475.99 12343.5 3541.31 12209.9 3523.34L12072.5 3504.82C12072.5 3504.82 12124.6 3117.28 12124.6 3117.28ZM12131.6 3468.59L12131.6 3468.59L12220.3 3480.5C12256.8 3485.43 12356.3 3488.89 12375.5 3346.15C12388 3253.81 12360.1 3193.26 12262 3179.99L12172.1 3167.88C12172.1 3167.88 12131.6 3468.59 12131.6 3468.59Z" fill="#fefefe" fill-rule="nonzero" opacity="1" stroke="none"/>
<path d="M12504.1 3169.27L12780.2 3210.27L12773.7 3253.64L12550.8 3220.47L12532.5 3343.4L12740.2 3374.33L12733.8 3417.65L12526 3386.77L12506.1 3520.44L12730.6 3553.9L12724.2 3597.22L12446.5 3555.88L12504.1 3169.27Z" fill="#fefefe" fill-rule="nonzero" opacity="1" stroke="none"/>
<path d="M13059.2 3652.38L13011.7 3644.39L13057.4 3370.76L12954.6 3353.46L12960.8 3316.81C13015 3325.96 13066.5 3320.18 13086.8 3264.36L13123 3270.45C13123 3270.45 13059.2 3652.38 13059.2 3652.38Z" fill="#fefefe" fill-rule="nonzero" opacity="1" stroke="none"/>
<path d="M13374 3314.28C13460.4 3329.79 13485 3384.73 13476.1 3433.07C13470 3466.92 13442 3494.05 13407.1 3502.27C13451.9 3525.26 13468.7 3562.74 13460 3609.97C13446.6 3683.65 13381 3715.69 13308 3702.53C13232.2 3688.93 13180.6 3640.25 13194.8 3562.31C13202.9 3517.15 13234.4 3486.76 13281.2 3479.56C13250.6 3460.82 13234.1 3425.04 13240.4 3390.68C13251.8 3327.83 13313.2 3303.34 13374 3314.28ZM13315.3 3662.22L13315.3 3662.22C13362.7 3670.75 13401.9 3645.07 13409.6 3602.66C13417.1 3561.21 13385.9 3523.42 13341.4 3515.45C13294.6 3507.03 13252.6 3529.43 13244.5 3573.48C13236.2 3619.16 13266.3 3653.37 13315.3 3662.22ZM13349.3 3475.22L13349.3 3475.22C13386.6 3481.91 13418.6 3464.34 13425.6 3425.61C13432.7 3387.54 13408.5 3362.08 13370 3355.19C13332.1 3348.33 13297.1 3363.18 13290.3 3401.29C13282.6 3443.22 13310.3 3468.19 13349.3 3475.22Z" fill="#fefefe" fill-rule="nonzero" opacity="1" stroke="none"/>
<path d="M13533.1 3642.52C13529.3 3680.28 13556.3 3707.27 13594.2 3714.61C13651.9 3725.84 13689.8 3682.38 13711.6 3584.6L13710.6 3583.32C13686.6 3612.1 13647.6 3625.71 13609.3 3618.28C13529.2 3602.8 13494.8 3541.99 13509.3 3466.69C13523.5 3393.04 13586.6 3352.87 13662.9 3367.64C13736.3 3381.92 13790.7 3432.02 13762.8 3576.12C13737.4 3707.84 13682 3773.52 13586.4 3754.98C13520.1 3742.11 13479.3 3700.18 13485.8 3633.36C13485.8 3633.36 13533.1 3642.52 13533.1 3642.52ZM13652.8 3407.55L13652.8 3407.55C13596.7 3396.61 13567.2 3436.07 13558.2 3482.85C13550 3524.78 13574.9 3569.77 13620.4 3578.59C13669.9 3588.23 13708.5 3555.51 13717.2 3510.41C13726.2 3463.57 13705.7 3417.76 13652.8 3407.55Z" fill="#fefefe" fill-rule="nonzero" opacity="1" stroke="none"/>
<path d="M13960.7 3427.2C14046.7 3445.09 14069.9 3500.82 14059.8 3549.13C14052.8 3582.9 14024.1 3609.35 13989.1 3616.58C14033.2 3640.9 14049.1 3678.89 14039.2 3726.12C14023.9 3799.63 13957.4 3829.91 13884.8 3814.8C13809.3 3799.15 13759 3748.89 13775.1 3671.15C13784.6 3626.07 13816.8 3596.45 13863.7 3590.58C13833.6 3570.85 13818 3534.56 13825.2 3500.26C13838.2 3437.46 13900.4 3414.55 13960.7 3427.2ZM13893.2 3774.63L13893.2 3774.63C13940.3 3784.44 13980.1 3759.72 13989 3717.33C13997.6 3676.03 13967.4 3637.27 13923 3628.03C13876.5 3618.33 13833.8 3639.71 13824.7 3683.65C13815.2 3729.24 13844.3 3764.48 13893.2 3774.63ZM13931.9 3588L13931.9 3588C13969.1 3595.68 14001.5 3578.96 14009.5 3540.29C14017.5 3502.21 13994 3476.07 13955.7 3468.11C13917.9 3460.23 13882.8 3474.15 13874.8 3512.28C13866.1 3554.06 13893.2 3579.86 13931.9 3588Z" fill="#fefefe" fill-rule="nonzero" opacity="1" stroke="none"/>
</g>
</g>
</g>
</svg>
